<svg viewBox="0 0 29 30" xmlns="http://www.w3.org/2000/svg"><path fill-rule="evenodd" clip-rule="evenodd" d="M14.68 0c3.784 0 6.91 2.883 7.296 6.571l.107.002c2.1 0 4.652 1.394 5.513 5.304l1.142 8.841c.41 2.854-.102 5.143-1.526 6.785C25.798 29.136 23.556 30 20.731 30H8.645c-3.102 0-5.264-.76-6.609-2.322C.686 26.11.234 23.762.694 20.695l1.123-8.724c.739-4 3.439-5.398 5.53-5.398a7.42 7.42 0 0 1 2.12-4.435A7.4 7.4 0 0 1 14.65 0zm7.403 8.744H7.346c-.638 0-2.772.258-3.384 3.565l-1.118 8.686c-.363 2.437-.083 4.2.837 5.267.907 1.054 2.532 1.566 4.964 1.566h12.086c1.517 0 3.589-.302 4.84-1.747.993-1.145 1.335-2.85 1.016-5.07l-1.128-8.762c-.48-2.158-1.749-3.505-3.376-3.505m-3.18 4.03c.599 0 1.118.487 1.118 1.087 0 .599-.453 1.085-1.052 1.085h-.067a1.086 1.086 0 0 1 0-2.171m-8.441 0c.599 0 1.119.487 1.119 1.087 0 .599-.455 1.085-1.054 1.085h-.065a1.086 1.086 0 0 1 0-2.171m4.213-10.602h-.021A5.2 5.2 0 0 0 11 3.679a5.2 5.2 0 0 0-1.463 2.895h10.249a5.18 5.18 0 0 0-5.112-4.4"/></svg>