<svg viewBox="0 0 25 30" xmlns="http://www.w3.org/2000/svg"><path fill-rule="evenodd" clip-rule="evenodd" d="M16.838 0c4.882 0 7.682 2.416 7.682 6.625v20.919a2.42 2.42 0 0 1-1.212 2.11 2.42 2.42 0 0 1-2.434.02l-8.577-4.846-8.656 4.855c-.374.21-.784.317-1.196.317-.425 0-.85-.114-1.235-.341A2.42 2.42 0 0 1 0 27.55V6.362C0 2.318 2.802 0 7.687 0zm0 2.159h-9.15c-3.669 0-5.53 1.413-5.53 4.203v21.189c0 .135.078.208.143.246a.27.27 0 0 0 .285.003l9.184-5.152c.328-.183.73-.184 1.06.001l9.104 5.143c.12.07.222.038.287-.001a.28.28 0 0 0 .14-.247V6.46c-.01-1.238-.25-4.302-5.523-4.302m.632 7.524a1.08 1.08 0 0 1 0 2.158H6.939a1.08 1.08 0 0 1 0-2.158z"/></svg>