<svg viewBox="0 0 16 17" xmlns="http://www.w3.org/2000/svg"><path d="M0 12.709V3a3 3 0 0 1 3-3h10a3 3 0 0 1 3 3v9.709a4.24 4.24 0 0 1-4.25 4.244 4 4 0 0 1-.504-.031h-.002a4.2 4.2 0 0 1-1.946-.766 2.23 2.23 0 0 0-2.593 0 4.2 4.2 0 0 1-1.949.766h-.002a4 4 0 0 1-.504.03A4.24 4.24 0 0 1 0 12.71Zm10.463 1.821.004.004a2.2 2.2 0 0 0 1.023.403 2 2 0 0 0 .261.016h.003A2.24 2.24 0 0 0 14 12.71V3a1 1 0 0 0-1-1H3a1 1 0 0 0-1 1v9.711a2.24 2.24 0 0 0 2.246 2.242h.003a2 2 0 0 0 .26-.016 2.2 2.2 0 0 0 1.023-.403l.005-.004a4.23 4.23 0 0 1 2.466-.789" fill-rule="evenodd"/></svg>