<svg viewBox="0 0 22 22" xmlns="http://www.w3.org/2000/svg"><path d="M16 0H6a6 6 0 0 0-6 6v10a6 6 0 0 0 6 6h10a6 6 0 0 0 6-6V6a6 6 0 0 0-6-6m0 2H6a4 4 0 0 0-4 4v10a4 4 0 0 0 4 4h10a4 4 0 0 0 4-4V6a4 4 0 0 0-4-4" fill-rule="evenodd"/><path d="M16.035 10.684a5 5 0 0 0-.046-.46 5 5 0 0 0-1.41-2.802 5 5 0 0 0-2.802-1.41 5 5 0 0 0-.46-.048 5 5 0 0 0-.274-.007 5 5 0 0 0-2.302.562 5 5 0 0 0-2.164 2.19 5 5 0 0 0-.534 2.248 5 5 0 0 0 .006.25 5 5 0 0 0 .057.544 5 5 0 0 0 1.401 2.742 5 5 0 0 0 2.741 1.4 5 5 0 0 0 .54.058 5 5 0 0 0 .255.006 5 5 0 0 0 2.248-.534 5 5 0 0 0 2.19-2.163 5 5 0 0 0 .562-2.303 5 5 0 0 0-.008-.273m-1.997.109a3 3 0 0 0-.027-.276 3 3 0 0 0-.847-1.681 3 3 0 0 0-1.681-.847 3 3 0 0 0-.276-.027 3 3 0 0 0-.164-.005 3 3 0 0 0-1.382.337 3 3 0 0 0-1.298 1.314 3 3 0 0 0-.32 1.35l.004.15a3 3 0 0 0 .034.325 3 3 0 0 0 .84 1.645 3 3 0 0 0 1.645.84 3 3 0 0 0 .324.035l.153.004a3 3 0 0 0 1.348-.32 3 3 0 0 0 1.315-1.298 3 3 0 0 0 .337-1.382 3 3 0 0 0-.005-.164" fill-rule="evenodd"/><path d="M16.5 4.5h.01a1 1 0 0 1 0 2h-.01a1 1 0 0 1 0-2"/></svg>