<svg viewBox="0 0 22 21" xmlns="http://www.w3.org/2000/svg"><path d="M22 13v7a1 1 0 0 1-1 1h-4a1 1 0 0 1-1-1v-7a1 1 0 0 0-1-1 1 1 0 0 0-1 1v7a1 1 0 0 1-1 1H9a1 1 0 0 1-1-1v-7a7 7 0 1 1 14 0m-2 0v6h-2v-6a3 3 0 0 0-.879-2.121A3 3 0 0 0 15 10a3 3 0 0 0-2.121.878A3 3 0 0 0 12 13v6h-2v-6a5 5 0 0 1 1.464-3.536A5 5 0 0 1 20 13" fill-rule="evenodd"/><path d="M5 7H1a1 1 0 0 0-1 1v12a1 1 0 0 0 1 1h4a1 1 0 0 0 1-1V8a1 1 0 0 0-1-1M4 9H2v10h2z" fill-rule="evenodd"/><path d="M0 3a3 3 0 0 0 6 0 3 3 0 0 0-6 0m2 0a1 1 0 0 0 2 0 1 1 0 0 0-2 0" fill-rule="evenodd"/></svg>