<svg viewBox="0 0 24 20" xmlns="http://www.w3.org/2000/svg"><path d="M20.133 1.395a10 10 0 0 0 2.29-1.202 1 1 0 0 1 1.549 1.054 8.7 8.7 0 0 1-1.995 3.774 6 6 0 0 1 .023.483 16.3 16.3 0 0 1-.918 5.544l-.001.003a13.35 13.35 0 0 1-12.839 8.893 15.3 15.3 0 0 1-3.205-.346 16 16 0 0 1-1.216-.313H3.82a16.7 16.7 0 0 1-3.307-1.401 1 1 0 0 1 .527-1.873 11 11 0 0 0 .422.008 10.6 10.6 0 0 0 4.454-.976 14 14 0 0 1-.42-.27 10.5 10.5 0 0 1-2.19-1.951l-.003-.003a9.1 9.1 0 0 1-1.697-3.061 10 10 0 0 1-.205-.729L1.4 9.025a10.7 10.7 0 0 1-.286-2.497v-.073A13 13 0 0 1 1.3 4.389a14 14 0 0 1 .293-1.329 13 13 0 0 1 .237-.778 11 11 0 0 1 .183-.498l.071-.173a1 1 0 0 1 1.735-.176A9.66 9.66 0 0 0 7.38 4.512 9.7 9.7 0 0 0 11 5.516V5.48A5.48 5.48 0 0 1 16.48 0l.105.001a5.48 5.48 0 0 1 3.548 1.394M13 5.54v1a1 1 0 0 1-.974 1l-.302.004a11.66 11.66 0 0 1-5.242-1.245 11.7 11.7 0 0 1-3.077-2.245 12 12 0 0 0-.134.67v.003a11 11 0 0 0-.157 1.744v.063a8.7 8.7 0 0 0 .232 2.03 8 8 0 0 0 .162.576 7.1 7.1 0 0 0 1.325 2.391 8.5 8.5 0 0 0 1.771 1.577l.002.002a11.7 11.7 0 0 0 1.796.984 1 1 0 0 1 .16 1.743 12.6 12.6 0 0 1-3.602 1.689 14 14 0 0 0 .5.117 13.3 13.3 0 0 0 2.793.3h.02a11.35 11.35 0 0 0 10.922-7.558A14.3 14.3 0 0 0 20 5.519v-.006a3.5 3.5 0 0 0-.062-.645 1 1 0 0 1 .28-.9 7 7 0 0 0 .618-.7 12 12 0 0 1-.688.23 1 1 0 0 1-1.043-.302 3.48 3.48 0 0 0-2.559-1.195L16.48 2a3.5 3.5 0 0 0-1.241.229 3.48 3.48 0 0 0-2.24 3.25v.048z" fill-rule="evenodd"/></svg>